# xmcd
#
# Track frame offsets:
#      150
#      18352
#      35119
#      55526
#      81011
#      108839
#      139802
#      159432
#      183740
#      201216
#      224955
# 
# Disc length: 4377 seconds
#
# Revision: 3
# Processed by: cddbd v1.4PL0 Copyright (c) Steve Scherf et al.
#
# Submitted via: FreeRIP 1.20
#
DISCID=9c11170b
DTITLE=George DeVore and The Roam - George DeVore and The Roam
DYEAR=1998
DGENRE=
TTITLE0=Take the Time
TTITLE1=Cut From the Same Cloth
TTITLE2=Wait
TTITLE3=Be Mine Anyway
TTITLE4=Bend But Don't Break
TTITLE5=The Roam
TTITLE6=Telephone Rings
TTITLE7=Ghost of Comfort
TTITLE8=Black Cat
TTITLE9=Stone Down the Road
TTITLE10=Broken Wings
EXTD=
EXTT0=
EXTT1=
EXTT2=
EXTT3=
EXTT4=
EXTT5=
EXTT6=
EXTT7=
EXTT8=
EXTT9=
EXTT10=
PLAYORDER=
